<svg xmlns="http://www.w3.org/2000/svg" viewBox="0 0 64 64">
  <rect width="64" height="64" rx="14" fill="#0b1410"/>
  <rect x="1.5" y="1.5" width="61" height="61" rx="12.5" fill="none" stroke="#26433b" stroke-width="3"/>
  <path d="M10 44c8-3 12-10 14-18" fill="none" stroke="#3fd6c4" stroke-width="2" stroke-linecap="round" opacity="0.55"/>
  <path d="M8 52c12-4 18-14 20-26" fill="none" stroke="#3fd6c4" stroke-width="2" stroke-linecap="round" opacity="0.3"/>
  <path d="M32 14c-3 6-9 8-9 15 0 5 4 9 9 9s9-4 9-9c0-7-6-9-9-15z" fill="#f5b942"/>
  <circle cx="32" cy="30" r="3" fill="#0b1410"/>
  <path d="M44 50l5-8 5 8" fill="none" stroke="#3fd6c4" stroke-width="2.5" stroke-linecap="round" stroke-linejoin="round"/>
  <circle cx="49" cy="52.5" r="2" fill="#3fd6c4"/>
</svg>
